<svg width="96" height="96" viewBox="0 0 96 96" fill="none" xmlns="http://www.w3.org/2000/svg">
<rect width="96" height="96" rx="20" fill="#1890FF"/>
<path d="M23.4964 63.1579V66.2795H20.2104V67.6002H23.4964V70.7368H24.88V67.6002H28.1503V66.2795H24.88V63.1579H23.4964Z" fill="white"/>
<path d="M67.8496 25.2632V26.7789H75.7895V25.2632H67.8496Z" fill="white" fill-opacity="0.8"/>
<g opacity="0.7" filter="url(#filter0_d_3_304)">
<g filter="url(#filter1_d_3_304)">
<path d="M71.7607 39.8061C72.1568 39.9711 72.5385 40.1911 72.8914 40.4661C73.6404 41.0505 74.2886 41.8823 74.7424 42.9754C75.8443 45.6154 75.7075 47.6091 74.7784 49.1971C74.231 50.139 73.41 50.8952 72.4161 51.5346C72.6393 51.7271 72.841 51.9402 73.0282 52.1739C73.0571 52.2014 73.0859 52.2358 73.1075 52.2702C73.2227 52.4214 73.3307 52.5796 73.4388 52.7514C74.0438 53.7414 74.0005 55.2195 73.5828 56.6632C73.1579 58.1275 72.3296 59.6538 71.4222 60.5475C69.4199 62.5274 67.0432 63.8749 64.436 64.3149C63.6942 64.4386 62.9308 64.4936 62.1601 64.4593L62.6787 66.9617C62.8227 67.6217 62.3762 68.2748 61.6848 68.4192L59.5601 68.8591C59.1352 68.9485 58.6671 68.8248 58.343 68.5017L52.1059 62.1768C51.0255 62.4931 50.01 62.5756 49.1025 62.3349C48.3319 62.1287 47.6837 61.7231 47.1651 61.0768C46.5169 61.5375 45.8543 61.8331 44.9469 61.8881C43.0167 62.0187 41.2305 61.8262 39.6821 61.3656C38.04 60.8775 36.6499 60.08 35.6272 59.035C34.7269 58.1138 34.3956 57.2132 34.1436 56.1613C33.481 56.4088 32.7751 56.622 32.0549 56.7732C30.917 57.0069 29.7358 57.0894 28.6195 56.9176C28.0721 56.8282 27.5463 56.677 27.0494 56.4638C26.0627 56.0307 25.22 55.357 24.6727 54.5251C24.4494 54.1814 24.2693 53.8102 24.1469 53.4183C22.5336 52.4214 21.4749 51.0534 20.8627 49.5134C20.2649 48.0078 20.0993 46.351 20.2793 44.7491C20.4594 43.1679 20.9635 41.628 21.7126 40.3355C22.5048 38.9605 23.5779 37.8468 24.8239 37.2212C25.8682 34.6156 27.5175 32.7663 29.6206 31.4807C31.6876 30.2157 34.158 29.5283 36.8876 29.1983C38.0328 28.3939 39.4372 27.7339 41.0649 27.2802C44.1114 26.4346 47.9574 26.3246 52.3075 27.4589C53.0709 27.6583 53.7984 27.8371 54.533 28.0158C58.8111 29.0676 63.01 30.0989 66.5751 33.0207C66.6975 33.1238 66.892 33.2819 67.0936 33.44C68.9158 34.8906 70.81 36.4168 71.7607 39.8061ZM68.0083 42.9548C67.5618 43.4842 66.7407 43.5667 66.1934 43.1335C65.6388 42.7004 65.5524 41.9236 66.0061 41.4011C66.6615 40.6311 67.4465 40.0811 68.2748 39.7649C68.4981 39.6755 68.7285 39.6136 68.959 39.5586C68.1308 37.4824 66.7551 36.3756 65.4155 35.3031C65.2643 35.1794 65.113 35.0556 64.8898 34.8769C61.7712 32.3194 57.8604 31.357 53.892 30.3807C53.1286 30.1951 52.3651 30.0026 51.6305 29.817C47.7773 28.8133 44.4139 28.8958 41.7851 29.6245C40.4959 29.982 39.394 30.4839 38.5081 31.0888C38.3713 31.2676 38.1768 31.412 37.9607 31.4945C37.1181 32.1751 36.5347 32.9451 36.2394 33.7357C36.0017 34.3819 35.2599 34.7188 34.5901 34.4919C33.9131 34.265 33.5602 33.5569 33.7979 32.9176C33.8843 32.6838 33.9851 32.4501 34.1076 32.2232C32.9768 32.5394 31.9397 32.9726 31.0178 33.5363C29.7574 34.3063 28.6987 35.3444 27.8993 36.7331L27.9713 36.74C28.6771 36.85 29.1596 37.4756 29.0444 38.1493C28.9292 38.823 28.2738 39.2836 27.5608 39.1736C27.3303 39.1393 27.0926 39.1324 26.8621 39.1461C26.6605 39.1599 26.4804 39.1943 26.322 39.2561C25.4289 39.5793 24.6078 40.4042 23.9813 41.4905C23.3979 42.5011 22.9946 43.7179 22.8505 44.9691C22.7137 46.2066 22.8289 47.4647 23.2826 48.599C23.5347 49.2246 23.8876 49.8159 24.363 50.3315L24.4278 50.1871C24.7231 49.5684 25.4937 49.2934 26.1419 49.5753C26.7901 49.8571 27.0782 50.5927 26.7829 51.2115C26.6821 51.4246 26.6101 51.6377 26.5741 51.8371C26.5524 51.9746 26.5452 52.1189 26.5524 52.2496C26.5885 52.3664 26.6101 52.4833 26.6101 52.6071C26.6605 52.8064 26.7469 52.9989 26.8621 53.1708C27.143 53.597 27.5896 53.9476 28.1225 54.1814C28.4034 54.3051 28.7131 54.3945 29.03 54.4426C29.7934 54.5595 30.6505 54.4976 31.5076 54.3189C32.5879 54.092 33.625 53.7002 34.4533 53.2808C35.0799 52.9577 35.8649 53.1845 36.2034 53.7895C36.261 53.8858 36.297 53.9889 36.3186 54.092H36.3258C36.3834 54.3464 36.4483 54.6214 36.5059 54.8895C36.7292 55.9001 36.9092 56.7045 37.5142 57.3232C38.2272 58.045 39.2355 58.6157 40.4527 58.98C41.7059 59.3513 43.1679 59.5025 44.774 59.3994C45.343 59.3581 45.8759 58.8975 46.6682 58.21L46.7042 58.1757C47.2372 57.7151 48.051 57.7563 48.5336 58.2582C48.6704 58.4025 48.764 58.5675 48.8144 58.7394C49.0521 59.4613 49.3906 59.8256 49.7939 59.9356C50.3269 60.08 51.0903 59.9219 51.9906 59.5781C52.502 59.3856 53.0637 59.5231 53.4167 59.8806L59.7258 66.2742L59.8914 66.2398L59.4233 64.0055C58.5446 63.7649 57.6588 63.4143 56.7657 62.9537C56.1319 62.6306 55.9014 61.8812 56.2399 61.2831C56.5784 60.685 57.3635 60.4581 57.9901 60.7812C60.0931 61.8675 62.1169 62.1699 63.9823 61.8537C66.0277 61.51 67.9219 60.4237 69.5496 58.815C70.169 58.2032 70.7596 57.0894 71.0765 55.9895C71.3285 55.1301 71.4078 54.3464 71.1845 53.9751C71.1269 53.8858 71.0693 53.8033 71.0044 53.7208L70.9612 53.6589C70.6011 53.2189 70.1042 52.9095 69.4992 52.7033C69.4199 52.6827 69.3335 52.6621 69.2615 52.6277C67.9723 52.2702 66.2726 52.3527 64.4648 52.7033C61.3247 53.3083 57.9324 54.7039 55.5485 56.017C54.8715 56.3882 54.3025 56.7388 53.8632 57.0551C53.2942 57.4607 52.4804 57.3438 52.0626 56.7938C51.6377 56.2438 51.7601 55.4739 52.3363 55.0751C52.8909 54.6833 53.5391 54.2776 54.2593 53.8858C56.8305 52.4627 60.518 50.9502 63.9679 50.2902C66.0133 49.8984 67.9867 49.809 69.6648 50.194C70.9468 49.5959 71.9839 48.8947 72.5169 47.9872C73.0787 47.0316 73.1147 45.7322 72.344 43.8829C72.0632 43.2092 71.6886 42.7073 71.2637 42.3842C71.0116 42.1848 70.7379 42.0542 70.4643 41.9786C70.4138 41.9717 70.3634 41.958 70.313 41.9442C70.2986 41.9442 70.2842 41.9373 70.2626 41.9373C69.9241 41.8892 69.5712 41.9305 69.2255 42.0611C68.8006 42.2192 68.3828 42.5217 68.0083 42.9548Z" fill="url(#paint0_linear_3_304)" fill-opacity="0.9" shape-rendering="crispEdges"/>
</g>
<path d="M52.4373 46.6403C51.4218 47.1146 50.6655 45.6366 51.681 45.1622C52.2356 44.901 52.7686 44.7428 53.2799 44.6741C53.676 41.5735 56.4129 39.793 59.5962 40.0473C60.5541 37.7099 63.5503 37.0018 65.999 38.253C67.0001 38.7617 66.1863 40.2123 65.1852 39.7036C64.0328 39.1123 62.5852 39.1192 61.7065 39.9236C60.7198 40.8242 60.9575 42.2198 61.6057 43.3747C62.1386 44.3303 60.619 45.1003 60.086 44.1516C59.5963 43.2716 59.3586 42.4398 59.3226 41.6835C57.1475 41.5392 55.3253 42.6735 55.0012 44.8253C55.8799 45.1141 56.6433 45.7191 57.306 46.654C57.9397 47.5546 56.5065 48.469 55.8727 47.5684C54.9508 46.2622 53.9137 45.9528 52.4373 46.6403ZM40.6257 51.1502C41.1946 51.5283 41.7924 51.8377 42.4118 52.0645C42.2606 53.4532 41.5403 54.5326 40.4096 55.3988C40.0351 55.6807 39.9775 56.2032 40.2727 56.5538C40.568 56.9113 41.1082 56.9663 41.4827 56.6844C41.9941 56.2994 42.4262 55.8801 42.7863 55.4332C43.7226 55.2201 44.6733 55.1994 45.4727 55.3782C46.1858 55.5363 46.7619 55.8526 47.0212 56.3269C47.5542 57.2894 49.0738 56.5194 48.5481 55.5569C47.6838 53.9963 45.6168 53.5151 43.809 53.6251C43.9459 53.2332 44.0467 52.8345 44.1043 52.4151C45.9697 52.5251 47.4749 51.6177 48.4761 49.9471C49.1459 50.4627 49.65 51.157 49.9021 51.8652C50.2694 52.8895 51.9043 52.3601 51.537 51.3289C50.6871 48.964 48.1087 47.1009 45.2639 47.4928C44.1403 47.6509 44.3852 49.2802 45.5159 49.1221C46.0129 49.0533 46.4882 49.0808 46.9348 49.1908C45.6096 51.3564 43.5281 51.0333 41.5979 49.7683C41.2018 49.514 40.6689 49.6102 40.3952 49.9814C40.1287 50.3802 40.2295 50.8958 40.6257 51.1502ZM63.1253 44.0278C64.6666 45.6778 64.6306 46.7984 62.6716 47.974C61.7137 48.5515 62.6284 49.9402 63.5935 49.3696C64.5442 48.799 65.178 48.1871 65.5525 47.534C66.2151 47.6509 66.8417 47.8915 67.1442 48.4621C67.6339 49.3833 69.1032 48.7509 68.7142 47.7953C69.24 46.7847 69.9746 46.1797 71.163 46.2484C72.3009 46.3103 72.3946 44.6672 71.2638 44.6053C69.6289 44.516 68.3541 45.2172 67.5043 46.5028C67.0433 46.2278 66.5176 46.0422 65.9486 45.939C65.9054 44.9353 65.3508 43.9316 64.4217 42.9416C63.6583 42.1235 62.3691 43.2166 63.1253 44.0278ZM54.706 50.2977C54.2666 50.1258 54.0506 49.6446 54.2306 49.2252C54.4107 48.8059 54.9148 48.5996 55.3542 48.7715C55.9663 49.0121 56.4489 49.3421 56.8666 49.8027C57.6084 50.6208 56.3048 51.7002 55.563 50.882C55.3398 50.6346 55.0301 50.4214 54.706 50.2977ZM30.7154 46.0903C31.8894 47.7265 34.1149 47.919 36.1099 47.8846C35.4761 48.7096 34.9503 49.6308 34.619 50.7033C34.3021 51.7414 35.9586 52.202 36.2755 51.1639C36.47 50.5246 36.7509 49.9677 37.0534 49.4933C38.1337 47.7953 40.0423 45.9253 42.347 47.0528C42.7575 47.259 43.2689 47.1078 43.4921 46.7297C44.0971 45.8359 44.7165 45.2997 45.3503 45.0522C45.9481 44.8185 46.5963 44.8322 47.2733 45.0316C47.655 45.1416 48.0655 44.9903 48.26 44.6741C49.2179 43.2304 50.8888 42.3023 52.5165 41.6835C52.8118 41.5735 52.999 41.326 53.0494 41.0579C53.1071 40.7554 54.1226 39.9442 54.5331 39.4973C55.2893 38.6655 56.1248 37.7993 56.1032 35.9224C57.7165 36.3693 59.3874 35.9431 61.0799 34.795C61.4688 34.5337 61.5625 34.0181 61.2816 33.6469C61.0079 33.2756 60.4677 33.1931 60.0788 33.4544C57.9397 34.905 56.2616 34.7537 54.6916 33.1037C53.9209 32.2994 52.6461 33.4131 53.4168 34.2106C53.6976 34.5062 53.9857 34.7675 54.2882 34.9943C54.6051 36.9262 53.9209 37.6686 53.3303 38.3217L52.5885 39.0505C52.1348 39.463 51.7314 39.8273 51.5082 40.3154C50.9608 40.5354 50.4278 40.7829 49.9309 41.0579C49.1603 39.188 47.9575 37.9299 45.4223 38.0261C44.2844 38.0674 44.3492 39.7105 45.4799 39.6692C47.3597 39.6005 47.9215 40.5836 48.4616 42.0273C47.9863 42.4054 47.5542 42.8316 47.1653 43.3129C45.2495 42.9623 43.6722 43.7391 42.4334 45.3066C41.598 45.0316 40.8129 45.0109 40.0855 45.1416C40.5464 44.1103 40.8345 43.031 40.6833 42.0135C40.5176 40.941 38.8107 41.1748 38.9763 42.2473C39.1564 43.4572 38.2849 45.0453 37.6151 46.1797C35.9298 46.2828 33.0922 46.4959 32.1415 45.1691C31.5005 44.2685 30.0744 45.1966 30.7154 46.0903ZM27.0063 44.8666C27.3016 44.5091 27.8417 44.4403 28.2163 44.7153C28.598 44.9903 28.6628 45.5128 28.3747 45.8703C27.6545 46.7572 28.8501 49.1427 30.7874 48.2559C31.8102 47.7884 32.552 49.2733 31.5293 49.7408C27.9498 51.3702 25.1697 47.1284 27.0063 44.8666ZM29.2318 42.3779C28.7276 43.4847 26.4589 42.6048 28.2955 40.8242C29.6783 39.4836 32.3503 39.1811 33.834 40.5767C34.6406 41.3398 33.4307 42.5085 32.624 41.7523C31.7237 40.8929 29.6999 41.3742 29.2318 42.3779ZM41.5835 37.208C41.4395 37.4761 41.3243 37.7718 41.2234 38.1017C40.9137 39.1467 42.5774 39.5936 42.8871 38.5486C43.2833 37.208 44.4428 36.5962 45.3647 36.1149C46.3082 35.6199 47.2805 35.4893 48.2312 35.9431C48.9226 36.273 49.6788 35.6268 49.4267 34.9325C49.0162 33.8325 49.686 32.7875 50.4351 31.9832C51.1913 31.1719 49.9021 30.0788 49.1459 30.8901C48.332 31.7632 47.6478 32.8425 47.583 34.0525C46.6971 33.9425 45.8112 34.0937 44.9758 34.4581C44.4428 33.145 43.3193 32.2856 41.8212 31.7975C40.7481 31.4469 40.1935 33.0075 41.2666 33.3581C42.3686 33.7156 43.1464 34.2931 43.4489 35.2831C43.168 35.4618 42.8943 35.6612 42.6279 35.8949C39.6101 33.7775 33.7331 37.3386 35.6201 41.1885C36.1027 42.1716 37.6583 41.4704 37.183 40.4942C36.0883 38.2736 39.8766 36.0943 41.5835 37.208ZM60.0428 57.5988C59.7547 57.9562 59.2073 58.025 58.8328 57.75C57.7453 56.9525 59.4378 55.2819 61.4328 55.5776C61.6633 55.6119 61.8866 55.6669 62.1098 55.7426C63.5791 53.9551 66.5104 53.2401 68.1741 54.8557C68.9663 55.6257 67.7419 56.7807 66.9425 56.0107C66.0854 55.1788 64.4145 55.7219 63.5719 56.6294C65.2284 58.2312 64.3065 60.4106 63.0821 59.8537C62.65 59.6612 62.4699 59.1662 62.6788 58.7606C63.1181 57.9013 60.9431 56.485 60.0428 57.5988Z" fill="white" fill-opacity="0.5"/>
</g>
<g filter="url(#filter2_d_3_304)">
<path d="M20.2104 58.8856C28.7017 41.6341 46.3889 16.9016 54.0069 20.5777C61.8947 24.3839 36.2275 70.7819 44.9122 75.4172C52.3899 79.4083 67.2982 50.2599 75.7894 38.0407" stroke="url(#paint1_linear_3_304)" shape-rendering="crispEdges"/>
</g>
<rect x="0.165211" y="0.67239" width="3.5181" height="48.5231" transform="matrix(0.865894 0.500228 -0.535472 0.844553 60.3949 24.8616)" stroke="white"/>
<rect width="8.13258" height="5.30605" transform="matrix(0.865894 0.500228 -0.535472 0.844553 34.7705 61.2798)" fill="white"/>
<rect width="8.13258" height="5.30605" transform="matrix(0.865894 0.500228 -0.535472 0.844553 46.1348 43.3544)" fill="white"/>
<rect width="8.13258" height="5.30605" transform="matrix(0.865894 0.500228 -0.535472 0.844553 38.5591 55.304)" fill="white"/>
<rect width="8.13258" height="5.30605" transform="matrix(0.865894 0.500228 -0.535472 0.844553 49.9229 37.3802)" fill="white"/>
<rect width="8.13258" height="5.30605" transform="matrix(0.865894 0.500228 -0.535472 0.844553 42.3467 49.3286)" fill="white"/>
<rect width="8.13258" height="5.30605" transform="matrix(0.865894 0.500228 -0.535472 0.844553 53.7114 31.4045)" fill="white"/>
<defs>
<filter id="filter0_d_3_304" x="10.2104" y="20.6269" width="75.312" height="62.2605" filterUnits="userSpaceOnUse" color-interpolation-filters="sRGB">
<feFlood flood-opacity="0" result="BackgroundImageFix"/>
<feColorMatrix in="SourceAlpha" type="matrix" values="0 0 0 0 0 0 0 0 0 0 0 0 0 0 0 0 0 0 127 0" result="hardAlpha"/>
<feOffset dy="4"/>
<feGaussianBlur stdDeviation="5"/>
<feComposite in2="hardAlpha" operator="out"/>
<feColorMatrix type="matrix" values="0 0 0 0 0.909804 0 0 0 0 0.945098 0 0 0 0 1 0 0 0 0.3 0"/>
<feBlend mode="normal" in2="BackgroundImageFix" result="effect1_dropShadow_3_304"/>
<feBlend mode="normal" in="SourceGraphic" in2="effect1_dropShadow_3_304" result="shape"/>
</filter>
<filter id="filter1_d_3_304" x="17.2104" y="24.6269" width="61.312" height="48.2605" filterUnits="userSpaceOnUse" color-interpolation-filters="sRGB">
<feFlood flood-opacity="0" result="BackgroundImageFix"/>
<feColorMatrix in="SourceAlpha" type="matrix" values="0 0 0 0 0 0 0 0 0 0 0 0 0 0 0 0 0 0 127 0" result="hardAlpha"/>
<feOffset dy="1"/>
<feGaussianBlur stdDeviation="1.5"/>
<feComposite in2="hardAlpha" operator="out"/>
<feColorMatrix type="matrix" values="0 0 0 0 0 0 0 0 0 0 0 0 0 0 0 0 0 0 0.15 0"/>
<feBlend mode="normal" in2="BackgroundImageFix" result="effect1_dropShadow_3_304"/>
<feBlend mode="normal" in="SourceGraphic" in2="effect1_dropShadow_3_304" result="shape"/>
</filter>
<filter id="filter2_d_3_304" x="15.7617" y="17.7106" width="64.4385" height="64.5789" filterUnits="userSpaceOnUse" color-interpolation-filters="sRGB">
<feFlood flood-opacity="0" result="BackgroundImageFix"/>
<feColorMatrix in="SourceAlpha" type="matrix" values="0 0 0 0 0 0 0 0 0 0 0 0 0 0 0 0 0 0 127 0" result="hardAlpha"/>
<feOffset dy="2"/>
<feGaussianBlur stdDeviation="2"/>
<feComposite in2="hardAlpha" operator="out"/>
<feColorMatrix type="matrix" values="0 0 0 0 0 0 0 0 0 0 0 0 0 0 0 0 0 0 0.45 0"/>
<feBlend mode="normal" in2="BackgroundImageFix" result="effect1_dropShadow_3_304"/>
<feBlend mode="normal" in="SourceGraphic" in2="effect1_dropShadow_3_304" result="shape"/>
</filter>
<linearGradient id="paint0_linear_3_304" x1="68.8175" y1="61.4967" x2="23.8093" y2="30.2935" gradientUnits="userSpaceOnUse">
<stop stop-color="white"/>
<stop offset="0.889848" stop-color="white" stop-opacity="0.7915"/>
<stop offset="1" stop-color="white" stop-opacity="0"/>
</linearGradient>
<linearGradient id="paint1_linear_3_304" x1="22.8571" y1="58.1053" x2="69.4184" y2="28.9747" gradientUnits="userSpaceOnUse">
<stop stop-color="white"/>
<stop offset="1" stop-color="white" stop-opacity="0"/>
</linearGradient>
</defs>
</svg>
